<svg width="157" height="40" viewBox="0 0 157 40" fill="none" xmlns="http://www.w3.org/2000/svg">
<path d="M0 0H156.667V40H0V0Z" fill="black"/>
<path d="M45.8267 12.2667V20.2H54.4267V21.3334H45.8267V30H44.4533V11.1334H55.76V12.2667H45.8267Z" fill="white"/>
<path d="M68.3277 23.1467L64.4877 13.6134C64.3544 13.3023 64.2255 12.9289 64.101 12.4934C64.0477 12.7067 63.9899 12.9112 63.9277 13.1067C63.8655 13.2934 63.7988 13.4667 63.7277 13.6267L59.8877 23.1467H68.3277ZM72.501 30H71.4477C71.3233 30 71.221 29.9689 71.141 29.9067C71.061 29.8356 70.9988 29.7467 70.9544 29.64L68.741 24.16H59.4744L57.261 29.64C57.2255 29.7378 57.1633 29.8223 57.0744 29.8934C56.9855 29.9645 56.8788 30 56.7544 30H55.7144L63.4344 11.1334H64.781L72.501 30Z" fill="white"/>
<path d="M81.8683 28.9067C83.5217 28.9067 84.7706 28.5512 85.615 27.84C86.4683 27.12 86.895 26.1112 86.895 24.8134C86.895 24.2178 86.7794 23.6845 86.5483 23.2134C86.3261 22.7334 86.0017 22.3289 85.575 22C85.1483 21.6623 84.6239 21.4045 84.0017 21.2267C83.3794 21.0489 82.6728 20.96 81.8817 20.96H77.135V28.9067H81.8683ZM77.135 12.2134V19.96H81.215C82.0861 19.96 82.8283 19.8489 83.4417 19.6267C84.0639 19.4045 84.5706 19.1112 84.9617 18.7467C85.3617 18.3823 85.655 17.9689 85.8417 17.5067C86.0283 17.0445 86.1217 16.5689 86.1217 16.08C86.1217 14.8089 85.7172 13.8489 84.9083 13.2C84.1083 12.5423 82.8683 12.2134 81.1883 12.2134H77.135ZM81.1883 11.1334C82.2639 11.1334 83.1972 11.24 83.9883 11.4534C84.7794 11.6667 85.4328 11.9823 85.9483 12.4C86.4639 12.8089 86.8461 13.3112 87.095 13.9067C87.3439 14.5023 87.4683 15.1778 87.4683 15.9334C87.4683 16.4312 87.3794 16.9112 87.2017 17.3734C87.0328 17.8356 86.7839 18.2623 86.455 18.6534C86.135 19.0445 85.735 19.3867 85.255 19.68C84.7839 19.9645 84.2417 20.1823 83.6283 20.3334C85.1128 20.5467 86.2506 21.04 87.0417 21.8134C87.8417 22.5778 88.2417 23.5867 88.2417 24.84C88.2417 25.64 88.0994 26.36 87.815 27C87.5306 27.64 87.1172 28.1823 86.575 28.6267C86.0328 29.0712 85.3661 29.4134 84.575 29.6534C83.7839 29.8845 82.8861 30 81.8817 30H75.7617V11.1334H81.1883Z" fill="white"/>
<path d="M97.384 20.4534C98.2195 20.4534 98.9662 20.3556 99.624 20.16C100.291 19.9556 100.851 19.6667 101.304 19.2934C101.766 18.92 102.117 18.4712 102.357 17.9467C102.597 17.4223 102.717 16.8312 102.717 16.1734C102.717 14.8312 102.277 13.8356 101.397 13.1867C100.526 12.5378 99.2506 12.2134 97.5706 12.2134H94.1173V20.4534H97.384ZM105.757 30H104.584C104.433 30 104.304 29.9778 104.197 29.9334C104.1 29.88 104.006 29.7867 103.917 29.6534L97.864 22C97.7928 21.9023 97.7173 21.8178 97.6373 21.7467C97.5662 21.6756 97.4817 21.6223 97.384 21.5867C97.2951 21.5423 97.184 21.5112 97.0506 21.4934C96.9262 21.4756 96.7706 21.4667 96.584 21.4667H94.1173V30H92.744V11.1334H97.5706C99.7395 11.1334 101.362 11.5556 102.437 12.4C103.522 13.2356 104.064 14.4667 104.064 16.0934C104.064 16.8134 103.94 17.4712 103.691 18.0667C103.442 18.6623 103.082 19.1867 102.611 19.64C102.148 20.0845 101.584 20.4489 100.917 20.7334C100.26 21.0178 99.5173 21.2089 98.6906 21.3067C98.904 21.44 99.0951 21.6178 99.264 21.84L105.757 30Z" fill="white"/>
<path d="M110.449 30H109.075V11.1334H110.449V30Z" fill="white"/>
<path d="M128.282 11.6C128.282 11.7689 128.219 11.9512 128.095 12.1467L116.122 28.8667H128.188V30H114.295V29.5067C114.295 29.4089 114.308 29.3245 114.335 29.2534C114.371 29.1734 114.411 29.0978 114.455 29.0267L126.455 12.2667H114.642V11.1334H128.282V11.6Z" fill="white"/>
<path d="M144.352 11.6C144.352 11.7689 144.29 11.9512 144.166 12.1467L132.192 28.8667H144.259V30H130.366V29.5067C130.366 29.4089 130.379 29.3245 130.406 29.2534C130.441 29.1734 130.481 29.0978 130.526 29.0267L142.526 12.2667H130.712V11.1334H144.352V11.6Z" fill="white"/>
<path d="M33.3333 13C33.3333 15.5774 31.244 17.6667 28.6667 17.6667C26.0893 17.6667 24 15.5774 24 13C24 10.4227 26.0893 8.33337 28.6667 8.33337C31.244 8.33337 33.3333 10.4227 33.3333 13Z" fill="white"/>
<path d="M19.3333 13C19.3333 15.5774 17.244 17.6667 14.6667 17.6667C12.0893 17.6667 10 15.5774 10 13C10 10.4227 12.0893 8.33337 14.6667 8.33337C17.244 8.33337 19.3333 10.4227 19.3333 13Z" fill="white"/>
<path d="M19.3333 27C19.3333 29.5774 17.244 31.6667 14.6667 31.6667C12.0893 31.6667 10 29.5774 10 27C10 24.4227 12.0893 22.3334 14.6667 22.3334C17.244 22.3334 19.3333 24.4227 19.3333 27Z" fill="white"/>
</svg>
